<?xml version="1.0" encoding="utf-8"?>
<!-- Generator: Adobe Illustrator 22.0.1, SVG Export Plug-In . SVG Version: 6.00 Build 0)  -->
<svg version="1.1" id="Layer_1" xmlns="http://www.w3.org/2000/svg" xmlns:xlink="http://www.w3.org/1999/xlink" x="0px" y="0px"
	 viewBox="0 0 3844.3 1827.5" style="enable-background:new 0 0 3844.3 1827.5;" xml:space="preserve">
<path d="M2214.6,563.3c-31.8,0-150.4,126.7-193.3,173.7c19.1-54.3,67.3-110.8,67.3-139.7c0-36-55-80-89-80s-79,10-149,10
	s-141-64-141-64c0,35.8,25.6,70.8,58.6,96.2c-57.7,18.1-129.9,70.8-153.9,128c-19.2,15.8-45.3,35.8-74.2,53.7
	c-3-36.7-9.5-50.4-9.5-90.9c0-80,123.5-142.5,123.5-164.5c0-40-52-78-74-78c0,0-137.5,71.5-137.5,180.5c0,11.8,0.4,22.1,1.1,31.3
	c-39.1,53.4-167.4,224.2-209.6,224.2c-50,0,96-169,96-210s-81-71-81-71c1.7,3.7-10.3,18.3-26.9,39c-17.7-14.6-67.1-51-119.1-51
	c-43.6,0-105.5,41.7-141.5,95.4c-30.6,7.7-64,19.4-99.2,34.5c38.3-169.2,54.9-304.6,57.6-325.1c8.3-61.4-123-83.8-123-83.8
	c18.9,24.8-10.4,244.1-78.5,482.9C355.4,968.8-58.3,1402,306.5,1451c299.1,40.2,462.1-384.4,543.5-717.3c29.2-11.9,57.7-21,85-26.7
	c-1.6,7.7-2.4,15.5-2.4,23.2c0,87,48,144,106,144c24,0,68.4-47.2,102.2-87.7c9.1,48.5,40.5,93.2,87.3,93.2c28.4,0,61-19.2,92.9-46.2
	c8.7,26.2,32.1,51.7,90.6,51.7c67,0,130-53,130-104c0-0.7,0-1.3,0-2c27-12.9,49.7-27.2,65.2-38c6.9,78.6,63.1,133.5,105.3,133.5
	c53.5,0,160.5-140.5,160.5-218.5c0-26.4-2.7-44.9-6.4-58c40.5-0.3,82.2-13.2,104.6-21.4c-24.9,48.2-84.2,167.2-84.2,204.4
	c0,47,50,100,87,95c26.9-73,103.5-150.4,145.9-189.4c-12.8,25.8-25.9,61.1-25.9,97.4c0,129,97,162,136,134c0,0-46-20-46-71
	c0-68,116-188,116-213C2299.6,595.3,2253.6,563.3,2214.6,563.3z M262.6,1398.2c-147.2-19.8,143.4-391.8,438.3-584.3
	C607.9,1115.1,455.5,1424.2,262.6,1398.2z M1037.6,822.3c-39,0,25-188,142-188c2.4,0,6,0.3,10,0.7
	C1158.5,684.8,1069.6,822.3,1037.6,822.3z M1475.6,773.9c-21.4,8.2-42.9,13.3-63,13.3c-15,0-29.3-0.8-42-2
	c36.8-39.9,68.4-82.6,85.3-106.5C1465.1,703.6,1475.4,721.5,1475.6,773.9z M1413.6,856.3c-45.3,0-61.7-36.8-65.6-47.6
	c0.6-0.5,1.1-1.1,1.7-1.6c5.3,1.9,20.6,5.2,62.9,5.2c19.6,0,39-2.7,57.6-7.1C1462.3,829.5,1444.9,856.3,1413.6,856.3z M1844.5,596.1
	c-0.1,0.5-0.1,1.1-0.2,1.7c-0.5-0.7-1-1.4-1.6-2C1843.3,595.9,1843.9,596,1844.5,596.1z M1703.6,823.3
	c-43.5,0,35.6-168.3,137.5-186.4c-0.3,6.6-0.5,13.4-0.5,20.4C1840.6,705.3,1749.6,823.3,1703.6,823.3z M3476.6,844.3
	c0-73,150-178,150-222s-55-86-55-86c5.1,13.1-88.9,92.6-140,176.8c-41.5,47.1-113.9,125.2-137,125.2c-33,0,120-190,120-213
	c0-47-91-84-91-84c6.7,4.9-5.3,27.2-23.6,56.2c-42.4,2.8-86.1,8.8-130.4,17.6c-20.9-132.5-102.2-285.8-331-285.8
	c-275,0-427,163-427,163c27,34-7,107,43,110c0-40.8,134.5-113.1,268.8-147.6c-60.7,90.9-196.8,264.4-196.8,388.6
	c0,21.6,3.4,39.2,8.9,53.6c-82.2,61.3-133.2,118.6-133.2,156.4c0,85,54.8,133,198.8,133c393.5,0,574.5-352.5,574.5-495
	c0-6.1-0.1-12.4-0.4-18.8c29.2-5.9,57.6-10.6,85-13.9c-25.9,40.1-49.6,79.9-49.6,100.6c0,49,32,113,80,113
	c25.9,0,72.4-41.6,109.8-79.9c-0.5,4.4-0.8,8.7-0.8,12.9c0,132,79,163,123,144C3522.6,949.3,3476.6,917.3,3476.6,844.3z
	 M2819.8,437.2c13-1.2,25.7-1.9,37.8-1.9c76.7,0,218.2,52.5,245,195.1c-170.5,43.6-342.9,122.7-474,203.6
	c41.4-111.2,220.5-323.6,220.5-338.2C2849.1,471.3,2836.2,451.9,2819.8,437.2z M2440.6,1055.3c0-33,43.9-78.3,114.2-126.5
	c30.2,33,73.8,32.5,73.8,32.5s-6.9-28.8-8.3-74c131.6-77.3,316.2-155.5,486.6-199.1C3096,1021,2440.6,1211.9,2440.6,1055.3z"/>
</svg>
