<svg id="Layer_1" data-name="Layer 1" xmlns="http://www.w3.org/2000/svg" viewBox="0 0 3461.68 1181.85"><defs><style>.cls-1{fill:#fff;}</style></defs><title>JasonDu_white</title><path class="cls-1" d="M2214.6,563.3c-31.8,0-150.4,126.7-193.3,173.7,19.1-54.3,67.3-110.8,67.3-139.7,0-36-55-80-89-80s-79,10-149,10-141-64-141-64c0,35.8,25.6,70.8,58.6,96.2-57.7,18.1-129.9,70.8-153.9,128-19.2,15.8-45.3,35.8-74.2,53.7-3-36.7-9.5-50.4-9.5-90.9,0-80,123.5-142.5,123.5-164.5,0-40-52-78-74-78,0,0-137.5,71.5-137.5,180.5,0,11.8.4,22.1,1.1,31.3-39.1,53.4-167.4,224.2-209.6,224.2-50,0,96-169,96-210s-81-71-81-71c1.7,3.7-10.3,18.3-26.9,39-17.7-14.6-67.1-51-119.1-51-43.6,0-105.5,41.7-141.5,95.4-30.6,7.7-64,19.4-99.2,34.5,38.3-169.2,54.9-304.6,57.6-325.1,8.3-61.4-123-83.8-123-83.8,18.9,24.8-10.4,244.1-78.5,482.9C355.4,968.8-58.3,1402,306.5,1451c299.1,40.2,462.1-384.4,543.5-717.3,29.2-11.9,57.7-21,85-26.7a114.23,114.23,0,0,0-2.4,23.2c0,87,48,144,106,144,24,0,68.4-47.2,102.2-87.7,9.1,48.5,40.5,93.2,87.3,93.2,28.4,0,61-19.2,92.9-46.2,8.7,26.2,32.1,51.7,90.6,51.7,67,0,130-53,130-104v-2a472.47,472.47,0,0,0,65.2-38c6.9,78.6,63.1,133.5,105.3,133.5,53.5,0,160.5-140.5,160.5-218.5,0-26.4-2.7-44.9-6.4-58,40.5-.3,82.2-13.2,104.6-21.4-24.9,48.2-84.2,167.2-84.2,204.4,0,47,50,100,87,95,26.9-73,103.5-150.4,145.9-189.4-12.8,25.8-25.9,61.1-25.9,97.4,0,129,97,162,136,134,0,0-46-20-46-71,0-68,116-188,116-213C2299.6,595.3,2253.6,563.3,2214.6,563.3Zm-1952,834.9C115.4,1378.4,406,1006.4,700.9,813.9,607.9,1115.1,455.5,1424.2,262.6,1398.2Zm775-575.9c-39,0,25-188,142-188,2.4,0,6,.3,10,.7C1158.5,684.8,1069.6,822.3,1037.6,822.3Zm438-48.4c-21.4,8.2-42.9,13.3-63,13.3-15,0-29.3-.8-42-2,36.8-39.9,68.4-82.6,85.3-106.5C1465.1,703.6,1475.4,721.5,1475.6,773.9Zm-62,82.4c-45.3,0-61.7-36.8-65.6-47.6.6-.5,1.1-1.1,1.7-1.6,5.3,1.9,20.6,5.2,62.9,5.2a250.92,250.92,0,0,0,57.6-7.1C1462.3,829.5,1444.9,856.3,1413.6,856.3Zm430.9-260.2c-.1.5-.1,1.1-.2,1.7a15.58,15.58,0,0,0-1.6-2ZM1703.6,823.3c-43.5,0,35.6-168.3,137.5-186.4-.3,6.6-.5,13.4-.5,20.4C1840.6,705.3,1749.6,823.3,1703.6,823.3Zm1773,21c0-73,150-178,150-222s-55-86-55-86c5.1,13.1-88.9,92.6-140,176.8-41.5,47.1-113.9,125.2-137,125.2-33,0,120-190,120-213,0-47-91-84-91-84,6.7,4.9-5.3,27.2-23.6,56.2a1014.77,1014.77,0,0,0-130.4,17.6c-20.9-132.5-102.2-285.8-331-285.8-275,0-427,163-427,163,27,34-7,107,43,110,0-40.8,134.5-113.1,268.8-147.6-60.7,90.9-196.8,264.4-196.8,388.6,0,21.6,3.4,39.2,8.9,53.6-82.2,61.3-133.2,118.6-133.2,156.4,0,85,54.8,133,198.8,133,393.5,0,574.5-352.5,574.5-495,0-6.1-.1-12.4-.4-18.8,29.2-5.9,57.6-10.6,85-13.9-25.9,40.1-49.6,79.9-49.6,100.6,0,49,32,113,80,113,25.9,0,72.4-41.6,109.8-79.9a114.49,114.49,0,0,0-.8,12.9c0,132,79,163,123,144C3522.6,949.3,3476.6,917.3,3476.6,844.3ZM2819.8,437.2c13-1.2,25.7-1.9,37.8-1.9,76.7,0,218.2,52.5,245,195.1-170.5,43.6-342.9,122.7-474,203.6,41.4-111.2,220.5-323.6,220.5-338.2C2849.1,471.3,2836.2,451.9,2819.8,437.2Zm-379.2,618.1c0-33,43.9-78.3,114.2-126.5,30.2,33,73.8,32.5,73.8,32.5s-6.9-28.8-8.3-74c131.6-77.3,316.2-155.5,486.6-199.1C3096,1021,2440.6,1211.9,2440.6,1055.3Z" transform="translate(-164.92 -271.8)"/></svg>